<svg xmlns="http://www.w3.org/2000/svg" xmlns:xlink="http://www.w3.org/1999/xlink" preserveAspectRatio="xMidYMid" width="86.5" height="86.5" viewBox="0 0 86.5 86.5">
  <defs>
    <style>
      .cls-1 {
        fill: #3c98ff;
      }

      .cls-2 {
        fill: #fff;
        fill-rule: evenodd;
      }
    </style>
  </defs>
  <g>
    <circle cx="43.25" cy="43.25" r="43.25" class="cls-1"/>
    <path d="M53.501,28.844 C50.924,26.245 47.498,24.814 43.855,24.814 C40.210,24.814 36.785,26.245 34.208,28.844 C29.440,33.654 28.847,42.702 32.925,48.184 L43.855,64.105 L54.768,48.206 C58.862,42.702 58.269,33.654 53.501,28.844 ZM43.980,43.470 C41.235,43.470 39.001,41.216 39.001,38.447 C39.001,35.678 41.235,33.424 43.980,33.424 C46.726,33.424 48.960,35.678 48.960,38.447 C48.960,41.216 46.726,43.470 43.980,43.470 Z" class="cls-2"/>
  </g>
</svg>