<svg xmlns="http://www.w3.org/2000/svg" width="100" height="30" viewBox="0 0 100 30">
  <defs>
    <style>
      .cls-1 {
        fill: #23282d;
        fill-rule: evenodd;
      }
    </style>
  </defs>
  <path id="WP" class="cls-1" d="M0,30V5.892H5.619V8.73a7.457,7.457,0,0,1,6.224-3.2,8.662,8.662,0,0,1,6.385,2.759,10.455,10.455,0,0,1,2.65,7.557,10.381,10.381,0,0,1-2.65,7.475,8.533,8.533,0,0,1-6.385,2.759,7.885,7.885,0,0,1-6.224-2.959V30H0ZM6.944,19.766a4.412,4.412,0,0,0,3.453,1.52,4.47,4.47,0,0,0,3.453-1.52,5.785,5.785,0,0,0,1.405-4,5.752,5.752,0,0,0-1.405-3.958,4.609,4.609,0,0,0-3.453-1.52,4.548,4.548,0,0,0-3.453,1.52,5.8,5.8,0,0,0-1.365,4.039,5.62,5.62,0,0,0,1.365,3.918h0Zm25.337,6.357a10.392,10.392,0,0,1-7.469-2.838,9.915,9.915,0,0,1-2.931-7.436,10.389,10.389,0,0,1,2.77-7.317,9.218,9.218,0,0,1,7.067-3,8.64,8.64,0,0,1,7.187,3.119A11.8,11.8,0,0,1,41.4,16.287c0,0.279-.04.76-0.08,1.48H27.462a4.96,4.96,0,0,0,1.686,2.877,5.077,5.077,0,0,0,3.172,1,7.04,7.04,0,0,0,4.859-2.038l3.212,2.838a9.843,9.843,0,0,1-8.111,3.678h0ZM27.422,14.248h8.472a5.1,5.1,0,0,0-1.365-3.078,3.672,3.672,0,0,0-2.811-1.119,3.824,3.824,0,0,0-2.851,1.119,5.284,5.284,0,0,0-1.445,3.078h0ZM48.583,26.083a7.286,7.286,0,0,1-4.858-1.639,5.507,5.507,0,0,1-1.968-4.518,5.462,5.462,0,0,1,2.168-4.718,9.882,9.882,0,0,1,5.862-1.6,14.221,14.221,0,0,1,4.819.838V14.089c0-2.4-1.405-3.6-4.256-3.6a15.74,15.74,0,0,0-5.461,1.079L43.483,7.252a19.246,19.246,0,0,1,7.709-1.559c2.971,0,5.22.719,6.706,2.2,1.406,1.439,2.128,3.518,2.128,6.316V25.682H54.606V23.564a7.754,7.754,0,0,1-6.023,2.519h0Zm1.686-3.877a5.049,5.049,0,0,0,3.212-1,3.044,3.044,0,0,0,1.2-2.478v-1a7.945,7.945,0,0,0-3.574-.76,4.981,4.981,0,0,0-2.891.719,2.428,2.428,0,0,0-1,2.119,2.019,2.019,0,0,0,.843,1.721,3.551,3.551,0,0,0,2.208.679h0Zm12.688,3.477V5.892h5.662v4c1.285-3.038,3.373-4.477,6.3-4.359V11.41H74.642a5.57,5.57,0,0,0-4.457,1.758,7.6,7.6,0,0,0-1.566,5.2v7.316H62.958Zm13.973,0V0.334h5.621V25.682H76.931ZM86.754,6.114h1.472l1.221-3.484,1.23,3.484h1.472l2.038-6.1H92.433l-1.063,3.5L90.2,0H88.74L87.562,3.522,86.5,0.018H84.716Zm9.789-.042V4.333H97.38a3.477,3.477,0,0,0,1.351-.244,2.041,2.041,0,0,0,.927-0.74,2.063,2.063,0,0,0,.343-1.2,1.924,1.924,0,0,0-.685-1.57,2.82,2.82,0,0,0-1.85-.565H94.854V6.072h1.689Zm0-4.662h0.8a1.109,1.109,0,0,1,.717.209,0.727,0.727,0,0,1,.257.6,0.736,0.736,0,0,1-.257.592,1.064,1.064,0,0,1-.708.218h-0.8V1.41Z"/>
</svg>
