<svg xmlns="http://www.w3.org/2000/svg" xmlns:xlink="http://www.w3.org/1999/xlink" preserveAspectRatio="xMidYMid" width="100%" height="100%" viewBox="0 0 38 46">
  <defs>
    <style>

      .cls-2 {
        fill: #fff;
      }
    </style>
  </defs>
  <path d="M9.427,6.156 C9.427,6.156 3.812,6.156 3.812,6.156 C3.812,6.156 5.298,7.653 5.298,7.653 C5.298,7.653 5.823,8.323 5.133,9.067 C4.499,9.581 3.910,9.226 3.894,9.233 C3.690,9.243 0.261,5.656 0.261,5.656 C0.261,5.656 -0.042,5.264 0.013,4.908 C0.032,4.786 -0.494,4.873 3.729,0.832 C4.026,0.597 5.981,0.602 5.050,2.495 C5.052,2.488 3.792,3.828 3.812,3.826 C3.800,3.834 9.524,3.824 9.510,3.826 C10.429,3.946 10.501,4.991 10.501,4.991 C10.501,4.991 10.536,5.932 9.427,6.156 ZM24.703,6.196 C24.703,6.196 30.312,6.196 30.312,6.196 C30.312,6.196 28.827,7.699 28.827,7.699 C28.827,7.699 28.302,8.371 28.992,9.118 C29.625,9.634 30.214,9.278 30.229,9.285 C30.434,9.294 33.858,5.695 33.858,5.695 C33.858,5.695 34.161,5.302 34.106,4.944 C34.087,4.821 34.612,4.909 30.394,0.853 C30.098,0.617 28.144,0.623 29.075,2.523 C29.073,2.515 30.332,3.860 30.312,3.858 C30.323,3.866 24.606,3.856 24.621,3.858 C23.703,3.978 23.631,5.027 23.631,5.027 C23.631,5.027 23.596,5.972 24.703,6.196 ZM24.622,46.000 C24.622,46.000 17.176,46.094 13.308,39.844 C10.281,33.746 4.720,21.711 4.720,21.711 C4.720,21.711 3.845,17.135 8.353,16.720 C12.052,16.335 13.391,21.960 13.391,21.960 C13.391,21.960 13.391,3.910 13.391,3.910 C13.391,3.910 13.474,-0.000 17.355,-0.000 C21.236,-0.000 21.154,3.993 21.154,3.993 C21.154,3.993 21.154,14.723 21.154,14.723 C21.154,14.723 24.409,12.872 26.439,16.553 C29.159,15.066 31.318,16.759 32.054,18.300 C32.580,17.484 37.730,16.794 38.000,21.794 C38.000,27.187 38.000,32.940 38.000,32.940 C38.000,32.940 37.767,45.033 24.622,46.000 ZM6.867,21.212 C6.867,21.212 14.630,37.765 14.630,37.765 C14.630,37.765 17.534,43.837 24.457,43.837 C31.380,43.837 34.697,37.515 34.697,37.515 C34.697,37.515 35.555,36.389 36.038,32.957 C36.031,32.870 36.034,21.336 36.018,21.295 C35.852,19.690 33.134,19.256 32.632,21.212 C32.640,21.232 32.653,22.792 31.476,22.792 C31.260,22.792 30.320,22.612 30.320,21.378 C30.320,20.144 30.654,18.217 28.751,18.217 C26.848,18.217 26.934,19.881 26.934,19.881 C26.934,19.881 26.959,21.045 25.778,21.045 C24.597,21.045 24.622,19.631 24.622,19.631 C24.622,19.631 25.230,16.387 23.053,16.387 C20.876,16.387 21.236,18.300 21.236,18.300 C21.236,18.300 21.295,19.298 20.080,19.298 C18.865,19.298 19.006,18.058 19.006,17.801 C19.006,17.544 19.006,3.826 19.006,3.826 C19.006,3.826 18.726,2.246 17.437,2.246 C15.308,2.185 15.621,4.409 15.621,4.409 C15.621,4.409 15.621,27.118 15.621,27.118 C15.621,27.118 14.895,28.799 13.473,27.367 C12.922,26.116 9.922,19.797 9.922,19.797 C9.922,19.797 8.931,18.543 7.610,19.298 C6.710,19.842 6.837,21.212 6.867,21.212 Z" id="path-1" class="cls-2" fill-rule="evenodd"/>
</svg>
