<?xml version="1.0" standalone="no"?>
<!DOCTYPE svg PUBLIC "-//W3C//DTD SVG 1.1//EN" "http://www.w3.org/Graphics/SVG/1.1/DTD/svg11.dtd" >
<svg xmlns="http://www.w3.org/2000/svg">
<metadata>Generated by IcoMoon</metadata>
<defs>
<font id="stmicons" horiz-adv-x="1024">
<font-face units-per-em="1024" ascent="960" descent="-64" />
<missing-glyph horiz-adv-x="1024" />
<glyph unicode="&#x20;" horiz-adv-x="512" d="" />
<glyph unicode="&#x10ffea;" glyph-name="psychologist-map-pin-o" horiz-adv-x="815" d="M407.927 960c-224.669 0-407.927-183.456-407.927-409.247 0-0.109 0-0.238 0-0.367 0-28.583 2.887-56.491 8.385-83.449l-0.455 2.673c0-1.766 0.881-3.531 0.881-6.176 44.933-201.977 361.232-505.384 374.449-517.731 6.099-6.007 14.476-9.716 23.719-9.716 0.333 0 0.666 0.005 0.997 0.014l-0.049-0.001c9.516 0.166 18.149 3.819 24.702 9.733l-0.033-0.030c13.217 13.23 327.752 315.749 372.688 513.321 0 1.766 0.881 3.531 0.881 5.293 5.606 25.279 8.818 54.313 8.818 84.098 0 0.822-0.002 1.644-0.007 2.465l0.001-0.127c0.879 225.791-182.38 409.247-407.048 409.247zM735.68 477.549v-2.646c-33.48-146.413-252.857-377.497-327.752-452.467-74.895 74.969-295.154 306.053-328.633 455.992 0.020 0.213 0.032 0.46 0.032 0.711 0 1.353-0.338 2.627-0.934 3.742l0.021-0.043c-4.312 20.603-6.869 44.346-7.048 68.655l-0.001 0.14c0 185.219 150.66 336.924 335.682 336.924s336.563-150.822 336.563-336.924c0.001-0.292 0.001-0.638 0.001-0.984 0-25.903-2.89-51.132-8.364-75.38l0.433 2.279zM407.927 729.799c-75.43-0.109-136.538-61.269-136.564-136.708v-0.002c0-74.969 61.674-136.709 136.564-136.709 75.286 0.286 136.206 61.384 136.206 136.71s-60.92 136.423-136.179 136.709h-0.028zM407.927 527.82c-0.021 0-0.046 0-0.071 0-36.047 0-65.268 29.222-65.268 65.268s29.222 65.268 65.268 65.268c36.047 0 65.268-29.222 65.268-65.268v0c0-0.054 0-0.118 0-0.182 0-35.946-29.14-65.086-65.086-65.086-0.039 0-0.079 0-0.118 0h0.006z" />
<glyph unicode="&#x10ffeb;" glyph-name="psychologist-map-pin" horiz-adv-x="794" d="M397.241 960c-219.665-1.281-397.243-179.65-397.243-399.495 0-0.449 0.001-0.898 0.002-1.347v0.069c0-208.843 329.728-568.497 367.334-608.786l29.908-32.097 30.014 32.097c37.553 40.289 367.369 399.943 367.369 608.786 0.001 0.389 0.002 0.851 0.002 1.312 0 219.887-177.663 398.279-397.272 399.46h-0.113zM397.241 393.428c-0.409-0.004-0.893-0.006-1.377-0.006-91.588 0-165.835 74.247-165.835 165.835s74.247 165.835 165.835 165.835c91.588 0 165.835-74.247 165.835-165.835 0-0.010 0-0.021 0-0.031v0.002c0.001-0.153 0.001-0.333 0.001-0.514 0-91.002-73.526-164.83-164.412-165.321h-0.047z" />
<glyph unicode="&#x10ffec;" glyph-name="psychologist-message" horiz-adv-x="1206" d="M296.732 599.631h612.142c23.385 0.173 42.276 19.171 42.276 42.58s-18.891 42.407-42.26 42.58h-612.158c-23.385-0.173-42.276-19.171-42.276-42.58s18.891-42.407 42.26-42.58h0.016zM296.732 394.002h612.142c23.516 0 42.579 19.063 42.579 42.579s-19.063 42.579-42.579 42.579h-612.142c-23.517 0-42.581-19.064-42.581-42.581s19.064-42.581 42.581-42.581v0zM42.538 118.784h136.953v-140.203c0-0.025 0-0.055 0-0.085 0-16.729 9.613-31.212 23.616-38.227l0.247-0.112c5.231-2.626 11.398-4.164 17.925-4.164 0.265 0 0.528 0.003 0.792 0.008l-0.039-0.001c9.727 0.054 18.718 3.16 26.075 8.408l-0.138-0.094 228.258 173.43h686.844c0.132-0.001 0.288-0.002 0.445-0.002 23.249 0 42.096 18.847 42.096 42.096 0 0.172-0.001 0.343-0.003 0.514v-0.026 757.093c0.002 0.146 0.003 0.318 0.003 0.49 0 23.248-18.846 42.093-42.093 42.093-0.157 0-0.314-0.001-0.471-0.003h-1120.508c-0.132 0.001-0.288 0.002-0.445 0.002-23.249 0-42.096-18.847-42.096-42.096 0-0.172 0.001-0.343 0.003-0.514v0.026-756.051c0.093-23.465 19.077-42.465 42.526-42.583h0.011zM85.075 874.84h1034.417v-670.895h-657.793c-9.728-0.054-18.719-3.16-26.078-8.408l0.138 0.094-171.192-130.858v96.595c0.002 0.145 0.003 0.316 0.003 0.488 0 23.249-18.847 42.096-42.096 42.096-0.156 0-0.313-0.001-0.469-0.003h-136.932v670.891z" />
<glyph unicode="&#x10ffed;" glyph-name="subject" horiz-adv-x="1023" d="M0 7.709v71.718h511.444v-143.427h-511.444zM0 447.444v71.157h1022.888v-142.315h-1022.888zM0 888.843v71.157h1022.888v-142.315h-1022.888z" />
<glyph unicode="&#x10ffee;" glyph-name="fax2" horiz-adv-x="1189" d="M227.923 960c-16.766-1.734-29.729-15.787-29.729-32.867 0-0.058 0-0.116 0-0.174v0.009-561.548h-168.465c-16.766-1.734-29.729-15.787-29.729-32.867 0-0.058 0-0.116 0-0.174v0.009-363.355c0-18.243 14.789-33.032 33.032-33.032v0h1123.097c18.243 0 33.032 14.789 33.032 33.032v0 363.355c0 18.243-14.789 33.032-33.032 33.032v0h-165.161v330.323c0.007 0.24 0.011 0.523 0.011 0.807 0 8.842-3.818 16.793-9.895 22.293l-0.026 0.023-231.226 231.226c-5.893 6.010-14.055 9.776-23.098 9.909h-498.812zM264.258 893.935h429.419v-198.194c0-18.243 14.789-33.032 33.032-33.032v0h198.194v-363.355h-660.645zM759.742 847.69l118.916-118.916h-118.916zM66.065 299.355h132.129v-33.032c0-18.243 14.789-33.032 33.032-33.032v0h726.71c18.243 0 33.032 14.789 33.032 33.032v0 33.032h132.129v-297.29h-1057.032zM789.471 183.742c-17.538-0.881-31.424-15.316-31.424-32.993 0-0.595 0.016-1.186 0.047-1.773l-0.003 0.082c0.881-17.538 15.316-31.424 32.993-31.424 0.595 0 1.186 0.016 1.773 0.047l-0.082-0.003h66.065c18.243 0 33.032 14.789 33.032 33.032s-14.789 33.032-33.032 33.032v0h-69.368zM971.148 183.742c-17.538-0.881-31.424-15.316-31.424-32.993 0-0.595 0.016-1.186 0.047-1.773l-0.003 0.082c0.881-17.538 15.316-31.424 32.993-31.424 0.595 0 1.186 0.016 1.773 0.047l-0.082-0.003h66.065c18.243 0 33.032 14.789 33.032 33.032s-14.789 33.032-33.032 33.032v0h-69.368z" />
<glyph unicode="&#x10ffef;" glyph-name="psychologist-zoom" d="M1011.435 8.749l-246.171 246.173c60.874 73.639 97.799 169.021 97.799 273.028 0 0.182 0 0.365 0 0.547v-0.029c0 238.231-193.3 431.532-431.53 431.532-238.441 0-431.532-193.301-431.532-431.532s193.092-431.53 431.532-431.53c0.247-0.001 0.54-0.001 0.833-0.001 103.804 0 199.003 36.846 273.23 98.173l-0.725-0.581 246.171-245.963c7.72-7.746 18.399-12.539 30.197-12.539 23.544 0 42.631 19.086 42.631 42.631 0 11.746-4.75 22.382-12.435 30.093l0.001-0.001zM431.532 182.825c-190.794 0-345.853 155.059-345.853 345.643s155.059 345.853 345.853 345.853c190.593 0 345.851-155.272 345.851-345.853s-155.267-345.643-345.851-345.643z" />
<glyph unicode="&#x10fff0;" glyph-name="psychologist-user" horiz-adv-x="1076" d="M536.299 385.324c159.033 0 288.023 128.884 288.023 287.781s-128.99 286.895-288.023 286.895-288.023-128.883-288.023-286.897 128.989-287.779 288.023-287.779zM536.299 884.967c116.624 0 212.044-95.338 212.044-211.862s-95.42-211.864-212.044-211.864-212.046 95.338-212.046 211.864 95.422 211.864 212.046 211.864zM37.992-64h1000.146c0.089-0.001 0.194-0.001 0.299-0.001 20.818 0 37.694 16.876 37.694 37.694 0 0.093 0 0.187-0.001 0.28v-0.014c0 198.621-161.686 361.048-361.36 361.048h-353.41c-198.792 0-361.36-161.544-361.36-361.048-0.001-0.079-0.001-0.173-0.001-0.267 0-20.817 16.876-37.693 37.693-37.693 0.106 0 0.211 0 0.317 0.001h-0.016zM361.36 259.089h353.41c0.046 0 0.1 0 0.154 0 144.083 0 263.204-106.879 282.404-245.681l0.169-1.492h-918.863c18.553 138.594 137.829 247.173 282.726 247.173z" />
<glyph unicode="&#x10fff1;" glyph-name="psychologist-paper-plane" horiz-adv-x="1219" d="M432.914 323.769c-5.441 0-13.603 2.719-19.042 5.441l-391.693 206.724c-13.607 8.162-24.482 24.484-21.761 40.802 2.634 16.655 14.229 30.064 29.607 35.268l0.313 0.092 1136.995 345.452c19.042 5.439 38.079-2.721 48.961-21.763 8.16-19.042 2.721-38.079-10.879-51.682l-748.026-552.172c-6.808-4.916-15.267-7.941-24.421-8.161l-0.053-0.001zM147.304 560.418l282.888-149.605 535.855 399.851zM612.438-65.196v0c-16.32 0-29.919 10.879-38.079 24.48l-179.526 388.965c-8.16 16.324-2.721 38.079 13.601 48.963l745.305 554.895c16.32 10.879 38.079 10.879 51.682-2.721 7.896-8.206 12.759-19.38 12.759-31.689 0-7.274-1.698-14.152-4.72-20.258l0.12 0.267-565.78-943.866c-8.16-10.881-21.761-19.036-35.36-19.036zM484.594 350.969l133.285-288.329 421.612 701.773s-554.897-413.444-554.897-413.444z" />
<glyph unicode="&#x10fff2;" glyph-name="location" d="M512 960c-204.49 0-370.854-166.364-370.854-370.852 0-253.776 331.878-626.334 346.008-642.070 13.272-14.782 36.444-14.756 49.692 0 14.13 15.736 346.008 388.294 346.008 642.070-0.004 204.488-166.366 370.852-370.854 370.852zM512 20.542c-111.694 132.676-304.070 394.434-304.070 568.602 0 167.668 136.404 304.072 304.070 304.072s304.070-136.404 304.070-304.070c-0.002-174.176-192.348-435.886-304.070-568.604zM512 775.732c-102.884 0-186.584-83.702-186.584-186.586s83.702-186.586 186.584-186.586 186.582 83.702 186.582 186.586-83.7 186.586-186.582 186.586zM512 469.344c-66.060 0-119.8 53.742-119.8 119.802s53.742 119.802 119.8 119.802 119.8-53.742 119.8-119.802-53.742-119.802-119.8-119.802z" />
<glyph unicode="&#x10fff3;" glyph-name="grid-world" d="M1022.771 482.133c-16.794 255.59-221.047 459.913-476.638 476.706v1.161h-68.267v-1.161c-255.59-16.794-459.913-221.116-476.706-476.706h-1.161v-68.267h1.161c16.794-255.59 221.116-459.844 476.706-476.638v-1.229h68.267v1.229c255.59 16.794 459.844 221.047 476.638 476.638h1.229v68.267h-1.229zM320.512 848.384c-32.973-43.827-60.348-98.782-80.282-161.451h-102.263c44.51 69.427 107.725 125.611 182.545 161.451zM102.263 618.667h120.013c-9.148-43.145-14.95-88.951-16.794-136.533h-135.919c3.618 48.060 14.95 94.003 32.7 136.533zM69.564 413.867h135.919c1.843-47.582 7.646-93.389 16.794-136.533h-120.013c-17.749 42.53-29.082 88.474-32.7 136.533zM137.967 209.067h102.195c19.934-62.669 47.309-117.623 80.35-161.451-74.82 35.84-138.035 91.955-182.545 161.451zM477.867 8.636c-70.178 18.773-130.594 94.14-167.253 200.431h167.253v-200.431zM477.867 277.333h-186.436c-9.626 42.53-15.701 88.474-17.681 136.533h204.117v-136.533zM477.867 482.133h-204.117c1.98 48.060 8.055 94.003 17.681 136.533h186.436v-136.533zM477.867 686.933h-167.253c36.659 106.291 97.075 181.658 167.253 200.363v-200.363zM886.033 686.933h-102.127c-20.002 62.669-47.309 117.623-80.418 161.451 74.752-35.84 138.035-92.023 182.545-161.451zM546.133 887.296c70.11-18.705 130.594-94.071 167.253-200.363h-167.253v200.363zM546.133 618.667h186.368c9.694-42.53 15.633-88.474 17.749-136.533h-204.117v136.533zM546.133 413.867h204.117c-1.98-48.060-8.055-94.003-17.749-136.533h-186.368v136.533zM546.133 8.636v200.431h167.253c-36.659-106.291-97.143-181.658-167.253-200.431zM703.488 47.616c32.973 43.895 60.416 98.782 80.418 161.451h102.127c-44.51-69.495-107.793-125.611-182.545-161.451zM921.737 277.333h-120.013c9.148 43.145 14.95 88.951 16.794 136.533h135.851c-3.55-48.060-14.882-94.003-32.631-136.533zM818.517 482.133c-1.843 47.582-7.646 93.389-16.794 136.533h120.013c17.749-42.53 29.082-88.474 32.7-136.533h-135.919z" />
<glyph unicode="&#x10fff4;" glyph-name="share" d="M813.34 304.873c-53.936 0-102.316-23.237-136.047-60.163l-293.062 140.985c7.007 19.516 10.983 40.375 10.983 62.305 0 21.858-4.012 42.753-10.983 62.287l293.062 140.93c33.73-36.889 82.147-60.181 136.047-60.181 101.863 0 184.482 82.601 184.482 184.482 0 101.899-82.619 184.482-184.482 184.482-101.881 0-184.5-82.583-184.5-184.482 0-9.785 0.998-19.298 2.469-28.629l-311.978-150.007c-30.517 22.293-67.987 35.6-108.652 35.6-101.881 0-184.482-82.583-184.482-184.427 0-101.953 82.601-184.518 184.482-184.518 40.665 0 78.153 13.289 108.634 35.618l311.96-150.044c-1.452-9.349-2.469-18.862-2.469-28.629 0-101.881 82.637-184.482 184.5-184.482 101.881 0 184.5 82.601 184.5 184.482 0 101.826-82.601 184.391-184.464 184.391zM813.34 851.039c41.664 0 75.557-33.894 75.557-75.557s-33.894-75.557-75.557-75.557c-28.72 0-47.219 15.522-55.66 24.762l-15.249 16.665-3.522 22.438c-0.762 4.865-1.144 8.696-1.144 11.691 0 41.664 33.894 75.557 75.576 75.557zM281.697 422.475l-7.734-21.567-19.007-13.906c-9.095-6.663-24.163-14.596-44.296-14.596-41.664 0-75.557 33.912-75.557 75.594 0 41.627 33.894 75.503 75.557 75.503 20.151 0 35.273-7.951 44.405-14.632l18.898-13.797 7.697-21.531c3.068-8.569 4.629-17.174 4.629-25.579 0-8.532-1.489-16.883-4.593-25.488zM813.304 44.888c-41.682 0-75.576 33.894-75.576 75.557 0 2.941 0.381 6.826 1.162 11.891l3.431 22.057 15.377 16.847c14.56 15.939 34.329 24.708 55.624 24.708 41.664 0 75.539-33.876 75.539-75.503 0.018-41.664-33.876-75.557-75.557-75.557z" />
<glyph unicode="&#x10fff5;" glyph-name="psychologist_chevron-left" horiz-adv-x="559" d="M20.445 397.428l420.822-439.563c12.080-12.934 29.235-20.995 48.272-20.995s36.193 8.062 48.237 20.957l0.035 0.038c12.429 13.182 20.068 30.999 20.068 50.601s-7.639 37.419-20.102 50.637l0.034-0.037-371.982 389.019 371.982 388.962c12.445 13.185 20.095 31.014 20.095 50.629s-7.65 37.444-20.128 50.665l0.034-0.036c-12.087 12.919-29.24 20.969-48.272 20.969s-36.185-8.050-48.238-20.932l-0.034-0.037-420.822-439.62c-12.648-13.096-20.441-30.953-20.441-50.629s7.793-37.533 20.462-50.65l-0.020 0.021z" />
<glyph unicode="&#x10fff6;" glyph-name="psychologist_chevron-right" horiz-adv-x="580" d="M558.824 397.428l-437.291-439.62c-12.827-12.94-30.608-20.951-50.26-20.951s-37.433 8.011-50.255 20.946l-0.005 0.005c-12.9 12.983-20.872 30.875-20.872 50.629s7.973 37.646 20.876 50.633l-0.004-0.004 386.747 388.962-386.747 388.962c-12.9 12.983-20.872 30.875-20.872 50.629s7.973 37.646 20.876 50.633l-0.004-0.004c12.814 12.967 30.599 20.999 50.26 20.999s37.446-8.031 50.253-20.992l0.007-0.007 437.291-439.62c12.978-12.937 21.008-30.831 21.008-50.601s-8.030-37.664-21.006-50.599l-0.002-0.002z" />
<glyph unicode="&#x10fff7;" glyph-name="psychologist_clock" d="M512-63.431c282.456 0 511.431 228.976 511.431 511.431s-228.976 511.431-511.431 511.431c-282.456 0-511.431-228.976-511.431-511.431v0c0.323-282.325 229.105-511.107 511.399-511.431h0.032zM512 887.751c242.868 0 439.751-196.883 439.751-439.751s-196.883-439.751-439.751-439.751c-242.868 0-439.751 196.883-439.751 439.751v0c0 0.017 0 0.037 0 0.057 0 242.836 196.858 439.694 439.694 439.694 0.020 0 0.040 0 0.060 0h-0.003zM488.107 387.698h170.667c20.108 0 36.409 16.301 36.409 36.409s-16.301 36.409-36.409 36.409h-134.258v209.92c0 20.108-16.301 36.409-36.409 36.409s-36.409-16.301-36.409-36.409v0-246.329c-0.002-0.136-0.003-0.297-0.003-0.458 0-19.857 16.097-35.954 35.954-35.954 0.161 0 0.322 0.001 0.482 0.003h-0.024z" />
<glyph unicode="&#x10fff8;" glyph-name="psychologist_envelope" horiz-adv-x="2272" d="M979.25-26.787c-0.008-0.077-0.008-0.158-0.008-0.248 0-1.442 0.392-2.808 1.064-3.99l-0.024 0.030c0-1.056 1.056-3.146 1.056-4.194 0.424-1.184 0.798-2.594 1.032-4.066l0.024-0.137c0.864-1.197 1.568-2.594 2.072-4.077l0.030-0.104c0.6-0.995 1.288-1.866 2.082-2.611l0.009-0.008c1.026-0.76 1.763-1.848 2.082-3.104l0.009-0.030c0.734-1.203 1.609-2.24 2.6-3.128l0.022-0.019 1.056-1.056c0.584 0 1.056-0.477 1.056-1.056v0c2.934-2.979 6.666-5.186 10.848-6.248l0.158-0.030c0.088 0.019 0.168 0.024 0.279 0.024 0.781 0 1.45-0.416 1.824-1.056l0.008-0.013c3.574-1.184 7.704-1.95 11.976-2.088l0.087-0.003h1074.325c4.36 0.158 8.48 0.919 12.376 2.189l-0.312-0.094c0.088-0.019 0.168-0.024 0.279-0.024 0.781 0 1.45 0.416 1.824 1.056l0.008 0.013c4.32 2.142 7.928 4.232 11.384 6.522l-0.376-0.232c0.584 0 1.056 0.477 1.056 1.056v0l1.056 1.056c1.056 1.056 1.568 2.088 2.617 3.146 1.026 0.76 1.763 1.848 2.082 3.104l0.009 0.030c0.798 0.746 1.502 1.624 2.072 2.568l0.030 0.046c0.864 1.197 1.568 2.594 2.072 4.077l0.030 0.104c0.707 0.878 1.128 2.018 1.128 3.251 0 0.334-0.030 0.664-0.094 0.973l0.008-0.030c0 1.056 1.056 3.146 1.056 4.194s0.534 2.088 0.534 4.194v944.867c0.013 0.328 0.024 0.717 0.024 1.11 0 22.552-18.269 40.824-40.824 40.824-0.030 0-0.040 0-0.073 0h-1071.697c-22.342-0.2-40.365-18.344-40.365-40.727 0-0.416 0.008-0.855 0.024-1.261l-0.003 0.061v-940.686c0.36-0.936 0.584-2.039 0.584-3.176 0-0.352-0.030-0.707-0.056-1.056l0.008 0.034zM1107.126 21.405l301.852 371.038 125.256-90.653c6.361-4.264 14.173-6.818 22.6-6.818 0.158 0 0.328 0.003 0.48 0.008h-0.030c0.040 0 0.094 0 0.158 0 8.525 0 16.455 2.536 23.072 6.905l-0.158-0.094 125.256 90.653 301.852-371.038h-900.321zM2054.074 94.784l-281.952 345.355 280.888 202.28v-547.641h1.056zM1059.955 876.148h993.082v-132.576l-495.763-355.303-497.319 355.303v132.576zM1059.955 642.422l280.888-202.28-280.888-345.355v547.639zM140.221 710.030v104.802h576.471v-104.802h-576.471zM297.452 447.998v104.802h419.236v-104.802h-419.236zM454.655 185.965v104.802h262.032v-104.802h-262.032z" />
<glyph unicode="&#x10fff9;" glyph-name="psychologist_envelope2" horiz-adv-x="1152" d="M0.768-26.88c0-0.021 0-0.047 0-0.072 0-1.381 0.356-2.68 0.981-3.808l-0.021 0.040c0.306-1.522 0.66-2.81 1.090-4.062l-0.066 0.222c0-1.28 0.96-2.56 0.96-4.48 0.918-1.073 1.623-2.357 2.030-3.768l0.018-0.072c0.96-1.28 0.96-1.92 1.984-3.2 0.971-0.806 1.674-1.905 1.976-3.16l0.008-0.040c1.135-0.917 2.108-1.971 2.912-3.15l0.032-0.050 1.024-0.64c0.58-0.026 1.041-0.503 1.041-1.087 0-0.068-0.006-0.135-0.018-0.2l0.001 0.007c2.832-2.985 6.601-5.057 10.833-5.745l0.111-0.015c0.96 0 0.96 0 1.984-1.28 3.552-1.208 7.645-1.91 11.899-1.92h1074.053c4.283 0.019 8.397 0.72 12.245 2l-0.277-0.080c0.96 0 0.96 0 1.984 1.28 4.395 2.022 7.984 3.944 11.451 6.045l-0.507-0.285c0.552 0.058 0.978 0.52 0.978 1.082 0 0.070-0.007 0.138-0.019 0.204l0.001-0.007 1.024 0.64c0.856 1.23 1.849 2.284 2.977 3.177l0.031 0.023c0.971 0.806 1.674 1.905 1.976 3.16l0.008 0.040c0.96 1.28 0.96 1.92 1.984 3.2 0.864 1.088 1.543 2.367 1.963 3.759l0.021 0.081c0.666 0.941 1.064 2.112 1.064 3.377 0 0.39-0.038 0.772-0.11 1.141l0.006-0.037c0.364 1.030 0.718 2.318 0.989 3.636l0.035 0.204c0.34 1.023 0.672 2.313 0.926 3.631l0.034 0.209v944.64c0.009 0.324 0.015 0.706 0.015 1.089 0 22.374-18.138 40.512-40.512 40.512-0.095 0-0.19 0-0.285-0.001h-1071.025c-0.080 0.001-0.174 0.001-0.269 0.001-22.41 0-40.576-18.166-40.576-40.576 0-0.36 0.005-0.72 0.014-1.078l-0.001 0.053v-940.16c0.709-0.924 1.136-2.097 1.136-3.37 0-0.393-0.041-0.776-0.118-1.146l0.006 0.036zM128.128 21.76l301.568 370.56 125.376-90.24c6.421-4.405 14.359-7.034 22.912-7.034s16.491 2.63 23.051 7.124l-0.139-0.090 125.376 90.24 301.568-370.56h-899.84zM1074.624 95.36l-281.6 344.96 280.64 201.6v-546.56h1.024zM81.344 875.52h992v-131.84l-495.616-355.84-496.64 355.84v131.84zM81.344 641.92l280.704-201.6-280.704-344.96v546.56z" />
<glyph unicode="&#x10fffa;" glyph-name="psychologist_minus" d="M0 512h1024v-128h-1024v128z" />
<glyph unicode="&#x10fffb;" glyph-name="psychologist_pencil" horiz-adv-x="1044" d="M1006.489 9.060h-969.263c-20.1-0.099-36.356-16.416-36.356-36.53 0 0 0 0 0 0v0c0.318-19.985 16.386-36.114 36.317-36.529l0.039-0.001h970.133c20.1 0.099 36.356 16.416 36.356 36.53 0 0 0 0 0 0v0c-0.454 20.234-16.934 36.47-37.22 36.53h-0.006zM0.87 330.292l-0.87-172.793c-0.003-0.176-0.005-0.385-0.005-0.593 0-10.151 4.050-19.356 10.623-26.087l-0.007 0.007c6.47-6.451 15.399-10.44 25.259-10.44 0.151 0 0.301 0.001 0.451 0.003h-0.023l171.923 0.58c10.079 0.124 19.154 4.317 25.68 11.009l0.007 0.008 593.584 593.178c6.587 6.719 10.652 15.931 10.652 26.093s-4.065 19.374-10.658 26.099l0.006-0.006-170.067 171.633c-6.789 6.429-15.979 10.382-26.093 10.382s-19.304-3.953-26.11-10.399l0.017 0.016-118.694-119.447-474.948-473.73c-6.385-6.635-10.416-15.575-10.726-25.453l-0.001-0.060zM631.679 871.284l119.621-120.027-67.32-67.262-119.621 120.027zM74.394 314.057l437.722 437.2 119.563-119.447-437.664-436.041-120.491-1.16z" />
<glyph unicode="&#x10fffc;" glyph-name="psychologist_calendar" horiz-adv-x="990" d="M960 899.868h-197.689v29.781c0 16.731-13.563 30.293-30.293 30.293s-30.293-13.563-30.293-30.293v0-29.753h-176.356v29.753c0 16.652-13.499 30.151-30.151 30.151s-30.151-13.499-30.151-30.151v-29.753h-168.96v29.753c0 16.652-13.499 30.151-30.151 30.151s-30.151-13.499-30.151-30.151v-29.753h-205.369c-0.025 0-0.055 0-0.086 0-16.605 0-30.066-13.461-30.066-30.066 0-0.040 0-0.080 0-0.12v0.006-681.785c0-0.025 0-0.055 0-0.085 0-16.621 13.474-30.094 30.094-30.094 0.020 0 0.040 0 0.060 0h185.17c30.926-127.835 144.352-221.306 279.609-221.306s248.683 93.471 279.207 219.342l0.402 1.963h185.173c0.017 0 0.037 0 0.057 0 16.621 0 30.094 13.474 30.094 30.094 0 0.030 0 0.060 0 0.090v-0.005 681.785c0 0.025 0 0.055 0 0.085 0 16.605-13.461 30.066-30.066 30.066-0.030 0-0.060 0-0.090 0h0.005zM235.804 839.538v-27.278c0-16.652 13.499-30.151 30.151-30.151s30.151 13.499 30.151 30.151v27.278h168.96v-27.278c0-16.652 13.499-30.151 30.151-30.151s30.151 13.499 30.151 30.151v27.278h176.356v-27.278c0-16.731 13.563-30.293 30.293-30.293s30.293 13.563 30.293 30.293v0 27.278h167.538v-123.392h-869.262v123.392h175.218zM495.218-3.442c-125.092 0.065-226.475 101.487-226.475 226.588 0 125.141 101.447 226.588 226.588 226.588s226.588-101.447 226.588-226.588c0-0.010 0-0.020 0-0.030v0.002c-0.13-125.124-101.568-226.512-226.698-226.56h-0.005zM782.222 218.112v5.006c0 158.508-128.496 287.004-287.004 287.004s-287.004-128.496-287.004-287.004v0-5.006h-147.627v437.703h869.262v-437.703h-147.627zM525.369 215.524v145.977c0 16.652-13.499 30.151-30.151 30.151s-30.151-13.499-30.151-30.151v-158.492c0-0.022 0-0.048 0-0.074 0-8.305 3.37-15.822 8.817-21.259v0l69.404-69.348c5.458-5.464 13.001-8.844 21.333-8.844s15.876 3.38 21.333 8.844v0c5.52 5.432 8.94 12.983 8.94 21.333s-3.42 15.901-8.936 21.329l-0.004 0.004z" />
<glyph unicode="&#x10fffd;" glyph-name="plus" d="M1024 512h-448v448h-128v-448h-448v-128h448v-448h128v448h448v128z" />
<glyph unicode="&#x10fffe;" glyph-name="phone" d="M282 478.667c62-120 162-220 282-282l94 94c12 12 30 16 44 10 48-16 100-24 152-24 24 0 42-18 42-42v-150c0-24-18-42-42-42-400 0-726 326-726 726 0 24 18 42 42 42h150c24 0 42-18 42-42 0-54 8-104 24-152 4-14 2-32-10-44z" />
<glyph unicode="&#x10ffff;" glyph-name="mail_outline" d="M512 468.667l342 214h-684zM854 170.667v426l-342-212-342 212v-426h684zM854 768.667c46 0 84-40 84-86v-512c0-46-38-86-84-86h-684c-46 0-84 40-84 86v512c0 46 38 86 84 86h684z" />
</font>
</defs>
</svg>
